<svg width="16" height="16" viewBox="0 0 16 16" fill="none" xmlns="http://www.w3.org/2000/svg">
<path d="M1.92743 8.676C1.78882 8.47783 1.71448 8.24184 1.71448 8C1.71448 7.75817 1.78882 7.52217 1.92743 7.324C2.82629 6.05143 5.03943 3.42857 8 3.42857C10.9606 3.42857 13.1737 6.05143 14.0726 7.324C14.2112 7.52217 14.2855 7.75817 14.2855 8C14.2855 8.24184 14.2112 8.47783 14.0726 8.676C13.1737 9.94857 10.9606 12.5714 8 12.5714C5.03943 12.5714 2.82629 9.94857 1.92743 8.676Z" stroke="#104263" stroke-opacity="0.6" stroke-width="1.37143" stroke-miterlimit="10" stroke-linecap="square"/>
<path d="M8.00001 10.2857C9.26237 10.2857 10.2857 9.26236 10.2857 7.99999C10.2857 6.73763 9.26237 5.71428 8.00001 5.71428C6.73764 5.71428 5.71429 6.73763 5.71429 7.99999C5.71429 9.26236 6.73764 10.2857 8.00001 10.2857Z" stroke="#104263" stroke-opacity="0.6" stroke-width="1.37143" stroke-miterlimit="10" stroke-linecap="square"/>
<path d="M2.28571 13.7143L13.7143 2.28572" stroke="#104263" stroke-opacity="0.6" stroke-width="1.37143" stroke-miterlimit="10" stroke-linecap="square"/>
</svg>
